<svg width="290" height="208" viewBox="0 0 290 208" fill="none" xmlns="http://www.w3.org/2000/svg">
<path fill-rule="evenodd" clip-rule="evenodd" d="M5 11C2.23858 11 0 13.2386 0 16V198C0 200.761 2.23857 203 4.99999 203H285C287.761 203 290 200.761 290 198V16C290 13.2386 287.761 11 285 11H5ZM5 13C3.34315 13 2 14.3432 2 16V198C2 199.657 3.34315 201 5 201H285C286.657 201 288 199.657 288 198V16C288 14.3431 286.657 13 285 13H5Z" fill="#FAF9F6"/>
<path d="M14.8085 8H96.1915L98 11H13L14.8085 8Z" fill="#FAF9F6"/>
<path d="M218 8H243V11H218V8Z" fill="#FAF9F6"/>
<path d="M210.833 0H251.167L253 8H209L210.833 0Z" fill="#FAF9F6"/>
<path d="M23 53.5C23 52.6716 23.6716 52 24.5 52H106.5C107.328 52 108 52.6716 108 53.5C108 54.3284 107.328 55 106.5 55H24.5C23.6716 55 23 54.3284 23 53.5Z" fill="#FAF9F6"/>
<path d="M23 66.5C23 65.6716 23.6716 65 24.5 65H106.5C107.328 65 108 65.6716 108 66.5C108 67.3284 107.328 68 106.5 68H24.5C23.6716 68 23 67.3284 23 66.5Z" fill="#FAF9F6"/>
<path d="M23 79.5C23 78.6716 23.6716 78 24.5 78H106.5C107.328 78 108 78.6716 108 79.5C108 80.3284 107.328 81 106.5 81H24.5C23.6716 81 23 80.3284 23 79.5Z" fill="#FAF9F6"/>
<path d="M23 92.5C23 91.6716 23.6716 91 24.5 91H106.5C107.328 91 108 91.6716 108 92.5C108 93.3284 107.328 94 106.5 94H24.5C23.6716 94 23 93.3284 23 92.5Z" fill="#FAF9F6"/>
<path d="M23 105.5C23 104.672 23.6716 104 24.5 104H106.5C107.328 104 108 104.672 108 105.5C108 106.328 107.328 107 106.5 107H24.5C23.6716 107 23 106.328 23 105.5Z" fill="#FAF9F6"/>
<path fill-rule="evenodd" clip-rule="evenodd" d="M138 46C135.239 46 133 48.2386 133 51V124C133 126.761 135.239 129 138 129H268C270.761 129 273 126.761 273 124V51C273 48.2386 270.761 46 268 46H138ZM215.561 56H196.989L180.01 92.4057H196.989L189.03 119L219.01 83.1107H203.622L215.561 56ZM159.5 105.25C154.167 105.25 150 103.667 147 100.5C144 97.3333 142.5 92.8333 142.5 87C142.5 83.1667 143.15 79.8833 144.45 77.15C145.783 74.3833 147.633 72.3 150 70.9C152.4 69.4667 155.167 68.75 158.3 68.75C160.2 68.75 162.117 69.3 164.05 70.4C164.783 70.8 165.517 71.3333 166.25 72C166.817 71.1333 167.4 70.45 168 69.95C168.6 69.5167 168.933 69.2833 169 69.25H170.25V78.75H168.25C167.817 77.15 167.167 75.7 166.3 74.4C165.5 73.1333 164.5 72.0833 163.3 71.25C162.133 70.4167 160.783 70 159.25 70C156.95 70 155.033 71.3333 153.5 74C152 76.6667 151.25 81 151.25 87C151.25 93.1 152.067 97.4667 153.7 100.1C155.367 102.7 157.633 104 160.5 104C162.067 104 163.55 103.567 164.95 102.7C166.383 101.8 167.533 100.617 168.4 99.15C169.3 97.6833 169.75 96.1333 169.75 94.5H171C171 96.4 170.483 98.1833 169.45 99.85C168.45 101.483 167.067 102.8 165.3 103.8C163.567 104.767 161.633 105.25 159.5 105.25ZM225.384 70.25L227.884 71L242.884 105H244.384L256.634 71.75L260.634 70.25V69.5H251.384V70.25L255.134 71.75L246.984 93.9L238.134 73.75C237.567 72.4833 236.734 71.4667 235.634 70.7C234.534 69.9 233.117 69.5 231.384 69.5H225.384V70.25Z" fill="#FAF9F6"/>
<path d="M33.2794 203H59.7206L62 208H31L33.2794 203Z" fill="#FAF9F6"/>
<path d="M33.2794 203H59.7206L62 208H31L33.2794 203Z" fill="#FAF9F6"/>
<path d="M215.279 203H241.721L244 208H213L215.279 203Z" fill="#FAF9F6"/>
<path d="M215.279 203H241.721L244 208H213L215.279 203Z" fill="#FAF9F6"/>
<path d="M281 87.7879L290 86V145L281 143.659V87.7879Z" fill="#FAF9F6"/>
<path d="M0 86L9 87.3409V143.659L0 145V86Z" fill="#FAF9F6"/>
<path d="M23 30C23 33.866 19.6421 37 15.5 37C11.3579 37 8 33.866 8 30C8 26.134 11.3579 23 15.5 23C19.6421 23 23 26.134 23 30Z" fill="#FAF9F6"/>
<path d="M282 30C282 33.866 278.642 37 274.5 37C270.358 37 267 33.866 267 30C267 26.134 270.358 23 274.5 23C278.642 23 282 26.134 282 30Z" fill="#FAF9F6"/>
<path d="M34 30C34 27.7909 35.7909 26 38 26H252C254.209 26 256 27.7909 256 30C256 32.2091 254.209 34 252 34H38C35.7909 34 34 32.2091 34 30Z" fill="#FAF9F6"/>
<path d="M23 188C23 191.866 19.6421 195 15.5 195C11.3579 195 8 191.866 8 188C8 184.134 11.3579 181 15.5 181C19.6421 181 23 184.134 23 188Z" fill="#FAF9F6"/>
<path d="M282 188C282 191.866 278.642 195 274.5 195C270.358 195 267 191.866 267 188C267 184.134 270.358 181 274.5 181C278.642 181 282 184.134 282 188Z" fill="#FAF9F6"/>
<path d="M34 188C34 185.791 35.7909 184 38 184H252C254.209 184 256 185.791 256 188C256 190.209 254.209 192 252 192H38C35.7909 192 34 190.209 34 188Z" fill="#FAF9F6"/>
<path d="M20 158C20 155.239 22.2386 153 25 153H106C108.761 153 111 155.239 111 158V161C111 163.761 108.761 166 106 166H25C22.2386 166 20 163.761 20 161V158Z" fill="#FAF9F6"/>
<path fill-rule="evenodd" clip-rule="evenodd" d="M160 176C171.046 176 180 167.046 180 156C180 144.954 171.046 136 160 136C148.954 136 140 144.954 140 156C140 167.046 148.954 176 160 176ZM160 174C169.941 174 178 165.941 178 156C178 146.059 169.941 138 160 138C150.059 138 142 146.059 142 156C142 165.941 150.059 174 160 174Z" fill="#FAF9F6"/>
<path d="M152 145H154V157H152V145Z" fill="#FAF9F6"/>
<path d="M165 145H167V157H165V145Z" fill="#FAF9F6"/>
<path d="M164 164C164 166.209 162.209 168 160 168C157.791 168 156 166.209 156 164C156 161.791 157.791 160 160 160C162.209 160 164 161.791 164 164Z" fill="#FAF9F6"/>
<path d="M156 164H164V168H156V164Z" fill="#FAF9F6"/>
<path fill-rule="evenodd" clip-rule="evenodd" d="M204 176C215.046 176 224 167.046 224 156C224 144.954 215.046 136 204 136C192.954 136 184 144.954 184 156C184 167.046 192.954 176 204 176ZM204 174C213.941 174 222 165.941 222 156C222 146.059 213.941 138 204 138C194.059 138 186 146.059 186 156C186 165.941 194.059 174 204 174Z" fill="#FAF9F6"/>
<path d="M196 145H198V157H196V145Z" fill="#FAF9F6"/>
<path d="M209 145H211V157H209V145Z" fill="#FAF9F6"/>
<path d="M208 164C208 166.209 206.209 168 204 168C201.791 168 200 166.209 200 164C200 161.791 201.791 160 204 160C206.209 160 208 161.791 208 164Z" fill="#FAF9F6"/>
<path d="M200 164H208V168H200V164Z" fill="#FAF9F6"/>
<path fill-rule="evenodd" clip-rule="evenodd" d="M247 176C258.046 176 267 167.046 267 156C267 144.954 258.046 136 247 136C235.954 136 227 144.954 227 156C227 167.046 235.954 176 247 176ZM247 174C256.941 174 265 165.941 265 156C265 146.059 256.941 138 247 138C237.059 138 229 146.059 229 156C229 165.941 237.059 174 247 174Z" fill="#FAF9F6"/>
<path d="M239 145H241V157H239V145Z" fill="#FAF9F6"/>
<path d="M252 145H254V157H252V145Z" fill="#FAF9F6"/>
<path d="M251 164C251 166.209 249.209 168 247 168C244.791 168 243 166.209 243 164C243 161.791 244.791 160 247 160C249.209 160 251 161.791 251 164Z" fill="#FAF9F6"/>
<path d="M243 164H251V168H243V164Z" fill="#FAF9F6"/>
<path fill-rule="evenodd" clip-rule="evenodd" d="M33 116C30.2386 116 28 118.239 28 121V142C28 144.761 30.2386 147 33 147H99C101.761 147 104 144.761 104 142V121C104 118.239 101.761 116 99 116H33ZM33 118C31.3431 118 30 119.343 30 121V142C30 143.657 31.3431 145 33 145H99C100.657 145 102 143.657 102 142V121C102 119.343 100.657 118 99 118H33Z" fill="#FAF9F6"/>
<path d="M54 128.5C54 127.119 55.1193 126 56.5 126H63.5C64.8807 126 66 127.119 66 128.5C66 129.881 64.8807 131 63.5 131H56.5C55.1193 131 54 129.881 54 128.5Z" fill="#FAF9F6"/>
<path d="M54 135.5C54 134.119 55.1193 133 56.5 133H63.5C64.8807 133 66 134.119 66 135.5C66 136.881 64.8807 138 63.5 138H56.5C55.1193 138 54 136.881 54 135.5Z" fill="#FAF9F6"/>
<path d="M69 124C69 122.895 69.8954 122 71 122H97C98.1046 122 99 122.895 99 124V139C99 140.105 98.1046 141 97 141H71C69.8954 141 69 140.105 69 139V124Z" fill="#FAF9F6"/>
<path d="M41 122H44V142H41V122Z" fill="#FAF9F6"/>
<path d="M44 140.86C43.5131 140.952 43.0118 141 42.5 141C41.9882 141 41.4869 140.952 41 140.86V123.14C41.4869 123.048 41.9882 123 42.5 123C43.0118 123 43.5131 123.048 44 123.14V140.86Z" fill="#FAF9F6"/>
<path d="M45 140.604C48.4743 139.474 51 136.049 51 132C51 127.951 48.4743 124.526 45 123.396V140.604Z" fill="#FAF9F6"/>
<path d="M34 132C34 136.049 36.5257 139.474 40 140.604V123.396C36.5257 124.526 34 127.951 34 132Z" fill="#FAF9F6"/>
</svg>
