<svg width="140" height="83" viewBox="0 0 140 83" fill="none" xmlns="http://www.w3.org/2000/svg">
<rect x="0.5" y="0.5" width="139" height="82" rx="4.5" stroke="#2C2724"/>
<path fill-rule="evenodd" clip-rule="evenodd" d="M5 0C2.23858 0 0 2.23858 0 5V78C0 80.7614 2.23857 83 5 83H135C137.761 83 140 80.7614 140 78V5C140 2.23858 137.761 0 135 0H5ZM82.5608 10H63.9894L47.0098 46.4057H63.9894L56.0302 73L86.0098 37.1107H70.622L82.5608 10ZM26.5 59.25C21.1667 59.25 17 57.6667 14 54.5C11 51.3333 9.5 46.8333 9.5 41C9.5 37.1667 10.15 33.8833 11.45 31.15C12.7833 28.3833 14.6333 26.3 17 24.9C19.4 23.4667 22.1667 22.75 25.3 22.75C27.2 22.75 29.1167 23.3 31.05 24.4C31.7833 24.8 32.5167 25.3333 33.25 26C33.8167 25.1333 34.4 24.45 35 23.95C35.6 23.5167 35.9333 23.2833 36 23.25H37.25V32.75H35.25C34.8167 31.15 34.1667 29.7 33.3 28.4C32.5 27.1333 31.5 26.0833 30.3 25.25C29.1333 24.4167 27.7833 24 26.25 24C23.95 24 22.0333 25.3333 20.5 28C19 30.6667 18.25 35 18.25 41C18.25 47.1 19.0667 51.4667 20.7 54.1C22.3667 56.7 24.6333 58 27.5 58C29.0667 58 30.55 57.5667 31.95 56.7C33.3833 55.8 34.5333 54.6167 35.4 53.15C36.3 51.6833 36.75 50.1333 36.75 48.5H38C38 50.4 37.4833 52.1833 36.45 53.85C35.45 55.4833 34.0667 56.8 32.3 57.8C30.5667 58.7667 28.6333 59.25 26.5 59.25ZM92.3838 24.25L94.8838 25L109.884 59H111.384L123.634 25.75L127.634 24.25V23.5H118.384V24.25L122.134 25.75L113.984 47.9L105.134 27.75C104.567 26.4833 103.734 25.4667 102.634 24.7C101.534 23.9 100.117 23.5 98.3838 23.5H92.3838V24.25Z" fill="#2C2724"/>
</svg>
